<svg width="43" height="27" viewBox="0 0 43 27" fill="none" xmlns="http://www.w3.org/2000/svg">
    <path d="M34.61 25.715H8.39c-4.157 0-7.538-3.384-7.538-7.543 0-4.156 3.381-7.538 7.538-7.538.48 0 .957.046 1.428.136a5.706 5.706 0 0 1 5.449-4.007c1.011 0 2 .27 2.862.775a9.385 9.385 0 0 1 8.869-6.253c5.19 0 9.412 4.222 9.412 9.412l-.001.154a7.5 7.5 0 0 1 5.741 7.321c0 4.16-3.382 7.543-7.538 7.543zM8.39 11.967a6.213 6.213 0 0 0-6.206 6.206c0 3.424 2.784 6.21 6.206 6.21H34.61c3.422 0 6.206-2.785 6.206-6.21 0-3.061-2.19-5.637-5.207-6.124a.666.666 0 0 1-.559-.704c.016-.214.026-.429.026-.648 0-4.455-3.625-8.08-8.08-8.08a8.057 8.057 0 0 0-7.849 6.156.667.667 0 0 1-1.078.35 4.343 4.343 0 0 0-2.805-1.028 4.374 4.374 0 0 0-4.305 3.596.666.666 0 0 1-.84.521 6.228 6.228 0 0 0-1.731-.245z" fill="#5D5FEF" stroke="#5D5FEF"/>
</svg>
