<svg width="487" height="70" viewBox="0 0 487 70" fill="none" xmlns="http://www.w3.org/2000/svg">
    <path d="M71.547 53.608H30.452a3.38 3.38 0 0 1-2.379-.976 3.309 3.309 0 0 1-.986-2.353c0-8.453 4.558-16.263 11.957-20.49a24.13 24.13 0 0 1 23.91 0c7.4 4.226 11.956 12.037 11.956 20.49 0 .882-.354 1.73-.986 2.353a3.38 3.38 0 0 1-2.378.976zM34.142 46.95h33.715C66.82 41.76 63.4 37.342 58.607 35a17.348 17.348 0 0 0-15.215 0c-4.795 2.342-8.214 6.76-9.25 11.95zM98.281 53.608H85.946a3.37 3.37 0 0 1-2.914-1.664 3.297 3.297 0 0 1 0-3.33 3.37 3.37 0 0 1 2.914-1.664H98.28c1.202 0 2.313.635 2.914 1.664a3.3 3.3 0 0 1 0 3.33 3.372 3.372 0 0 1-2.913 1.664zM16.055 53.608H3.719a3.371 3.371 0 0 1-2.913-1.664 3.3 3.3 0 0 1 0-3.33 3.371 3.371 0 0 1 2.913-1.664h12.336a3.37 3.37 0 0 1 2.913 1.664c.602 1.03.602 2.3 0 3.33a3.37 3.37 0 0 1-2.913 1.664zM51 19.031a3.346 3.346 0 0 1-2.39-.964 3.272 3.272 0 0 1-.974-2.364V3.497c0-1.19.64-2.288 1.681-2.883a3.392 3.392 0 0 1 3.364 0 3.322 3.322 0 0 1 1.682 2.883v12.206a3.273 3.273 0 0 1-.974 2.364 3.345 3.345 0 0 1-2.39.964zM75.706 29.16a3.38 3.38 0 0 1-2.387-.966 3.347 3.347 0 0 1-.98-2.363c0-.884.352-1.733.98-2.362l8.718-8.627a3.348 3.348 0 0 1 2.387-.998c.9 0 1.761.36 2.388.998.627.63.98 1.48.98 2.363 0 .884-.353 1.733-.98 2.362l-8.718 8.627a3.381 3.381 0 0 1-2.388.966zM26.293 29.16a3.381 3.381 0 0 1-2.388-.966l-8.718-8.627a3.347 3.347 0 0 1-.98-2.362c0-.884.353-1.733.98-2.363a3.346 3.346 0 0 1 2.388-.998c.9 0 1.76.36 2.387.998l8.719 8.627h-.001c.627.63.98 1.478.98 2.362 0 .885-.353 1.733-.98 2.363a3.38 3.38 0 0 1-2.387.966zM97.231 65.814H4.768a3.424 3.424 0 0 1-2.627-.848 3.347 3.347 0 0 1-1.123-2.498c0-.954.407-1.861 1.123-2.5a3.425 3.425 0 0 1 2.627-.847h92.463a3.425 3.425 0 0 1 2.628.847 3.349 3.349 0 0 1 1.123 2.5c0 .952-.408 1.86-1.123 2.498a3.424 3.424 0 0 1-2.628.849z" fill="#3453BE"/>
    <path d="M153.625 58.748c-8.816 0-14.732-5.684-14.732-14.268V31.256c0-8.468 5.916-14.152 14.732-14.152 8.874 0 14.79 5.684 14.79 14.152V44.48c0 8.584-5.916 14.268-14.79 14.268zm0-5.8c4.872 0 8.062-3.248 8.062-8.236V31.198c0-4.988-3.19-8.294-8.062-8.294-4.814 0-8.004 3.306-8.004 8.294v13.514c0 4.988 3.19 8.236 8.004 8.236zm47.211-16.762c.696 2.146 1.044 4.582 1.044 7.25 0 2.61-.29 4.988-.986 7.076-1.682 4.988-5.452 8.12-11.194 8.12-2.842 0-4.988-1.044-6.612-2.842-.174-.232-.406-.174-.406.116v12.296c0 .58-.348.928-.928.928h-4.872c-.58 0-.928-.348-.928-.928V29.458c0-.58.348-.928.928-.928h4.872c.58 0 .928.348.928.928v1.508c0 .29.232.406.406.116 1.566-1.914 3.77-3.016 6.612-3.016 5.568 0 9.454 3.19 11.136 8.12zm-7.598 14.21c1.102-1.682 1.682-4.06 1.682-7.076 0-2.726-.464-4.988-1.392-6.612-.986-1.798-2.668-2.784-4.872-2.784-2.03 0-3.48.986-4.524 2.726-.928 1.566-1.334 3.944-1.334 6.728 0 2.958.464 5.278 1.45 6.902.986 1.624 2.436 2.552 4.35 2.552 2.03 0 3.596-.87 4.64-2.436zm28.28 2.552c2.9-.116 5.046-1.334 6.322-3.19.348-.522.812-.638 1.276-.29l2.784 2.204c.406.348.58.754.232 1.276-2.204 3.48-6.148 5.684-11.252 5.684-6.264 0-10.382-3.19-12.18-8.236-.754-2.088-1.16-4.524-1.16-7.192 0-2.552.116-4.408.638-6.148 1.45-5.452 6.032-8.99 12.238-8.99 7.772 0 11.542 4.524 12.702 11.89.232 1.45.348 3.074.406 4.756 0 .58-.348.928-.928.928h-17.98c-.232 0-.348.116-.348.348 0 1.044.116 1.914.348 2.552.812 2.726 3.306 4.408 6.902 4.408zm-1.16-19.082c-3.016 0-4.872 1.624-5.568 4.06a9.092 9.092 0 0 0-.464 2.436c-.058.232.058.348.29.348h11.658c.232 0 .348-.116.348-.348-.116-.87-.174-1.566-.348-2.088-.696-2.668-2.784-4.408-5.916-4.408zm33.924-5.8c6.264 0 10.382 3.944 10.382 10.382V57.24c0 .58-.348.928-.928.928h-4.872c-.58 0-.928-.348-.928-.928v-17.4c0-3.538-2.204-5.974-5.568-5.974-3.306 0-5.568 2.378-5.568 5.916V57.24c0 .58-.348.928-.928.928H241c-.58 0-.928-.348-.928-.928V29.458c0-.58.348-.928.928-.928h4.872c.58 0 .928.348.928.928v1.566c0 .29.174.406.348.174 1.682-2.146 4.06-3.132 7.134-3.132z" fill="#E09600"/>
    <path d="M281.185 58.168c-.522 0-.928-.29-1.044-.812l-10.44-38.744c-.174-.638.174-1.044.812-1.044h5.22c.522 0 .87.232.986.812l6.554 26.1c.058.348.406.29.464 0l6.206-26.1c.116-.58.464-.812.986-.812h5.22c.522 0 .928.232 1.044.812l6.612 26.1c.058.348.406.348.464 0l6.438-26.1c.116-.58.464-.812.986-.812h4.988c.638 0 .928.406.754 1.044l-9.86 38.744c-.116.58-.522.812-1.044.812h-5.046c-.522 0-.87-.232-.986-.812l-6.728-27.318c-.058-.348-.406-.29-.464 0l-6.438 27.318c-.116.58-.464.812-.986.812h-4.698zm51.529-5.22c2.9-.116 5.046-1.334 6.322-3.19.348-.522.812-.638 1.276-.29l2.784 2.204c.406.348.58.754.232 1.276-2.204 3.48-6.148 5.684-11.252 5.684-6.264 0-10.382-3.19-12.18-8.236-.754-2.088-1.16-4.524-1.16-7.192 0-2.552.116-4.408.638-6.148 1.45-5.452 6.032-8.99 12.238-8.99 7.772 0 11.542 4.524 12.702 11.89.232 1.45.348 3.074.406 4.756 0 .58-.348.928-.928.928h-17.98c-.232 0-.348.116-.348.348 0 1.044.116 1.914.348 2.552.812 2.726 3.306 4.408 6.902 4.408zm-1.16-19.082c-3.016 0-4.872 1.624-5.568 4.06a9.092 9.092 0 0 0-.464 2.436c-.058.232.058.348.29.348h11.658c.232 0 .348-.116.348-.348-.116-.87-.174-1.566-.348-2.088-.696-2.668-2.784-4.408-5.916-4.408zm31.024-5.8c7.482 0 12.296 4.176 12.296 9.86V57.24c0 .58-.348.928-.928.928h-4.872c-.58 0-.928-.348-.928-.928v-1.45c0-.29-.174-.348-.406-.174-2.03 1.972-4.872 3.016-8.352 3.016-5.394 0-9.802-2.668-9.802-8.758 0-5.974 4.35-9.57 12.064-9.57h6.148c.232 0 .348-.116.348-.348v-1.334c0-2.958-1.74-4.756-5.394-4.756-2.784 0-4.582 1.044-5.162 2.726-.174.58-.464.812-1.044.754l-5.22-.638c-.58-.058-.928-.348-.87-.754.696-4.582 5.452-7.888 12.122-7.888zm-1.334 25.23c3.654 0 6.902-2.146 6.902-5.336v-2.668c0-.232-.116-.348-.348-.348h-4.814c-4.06 0-6.67 1.566-6.67 4.466 0 2.552 2.146 3.886 4.93 3.886zm35.992-20.242c0 .58-.348.928-.928.928h-5.626c-.232 0-.348.116-.348.348v13.688c0 3.016 1.276 4.234 4.002 4.234h1.508c.58 0 .928.348.928.928v3.886c0 .58-.29.928-.928.986-.928 0-1.856.058-2.784.058-5.568 0-9.106-1.392-9.164-7.54V34.33c0-.174-.116-.348-.348-.348h-3.016c-.58 0-.928-.348-.928-.928v-3.596c0-.58.348-.928.928-.928h3.016c.232 0 .348-.116.348-.348v-6.496c0-.58.348-.928.928-.928h4.582c.58 0 .928.348.928.928v6.496c0 .174.116.348.348.348h5.626c.58 0 .928.348.928.928v3.596zm20.585-4.988c6.264 0 10.382 3.944 10.382 10.382V57.24c0 .58-.348.928-.928.928h-4.872c-.58 0-.928-.348-.928-.928v-17.4c0-3.538-2.204-5.974-5.568-5.974-3.306 0-5.568 2.378-5.568 5.916V57.24c0 .58-.348.928-.928.928h-4.872c-.58 0-.928-.348-.928-.928V18.496c0-.58.348-.928.928-.928h4.872c.58 0 .928.348.928.928v12.528c0 .29.174.406.348.174 1.682-2.146 4.06-3.132 7.134-3.132zm31.021 24.882c2.9-.116 5.046-1.334 6.322-3.19.348-.522.812-.638 1.276-.29l2.784 2.204c.406.348.58.754.232 1.276-2.204 3.48-6.148 5.684-11.252 5.684-6.264 0-10.382-3.19-12.18-8.236-.754-2.088-1.16-4.524-1.16-7.192 0-2.552.116-4.408.638-6.148 1.45-5.452 6.032-8.99 12.238-8.99 7.772 0 11.542 4.524 12.702 11.89.232 1.45.348 3.074.406 4.756 0 .58-.348.928-.928.928h-17.98c-.232 0-.348.116-.348.348 0 1.044.116 1.914.348 2.552.812 2.726 3.306 4.408 6.902 4.408zm-1.16-19.082c-3.016 0-4.872 1.624-5.568 4.06a9.092 9.092 0 0 0-.464 2.436c-.058.232.058.348.29.348h11.658c.232 0 .348-.116.348-.348-.116-.87-.174-1.566-.348-2.088-.696-2.668-2.784-4.408-5.916-4.408zm33.517-5.684c1.392 0 2.32.29 3.074.638.464.232.638.638.522 1.16l-.928 4.814c-.116.638-.464.754-1.102.58-.754-.232-1.798-.348-2.958-.174-3.132.174-5.684 2.32-5.684 5.858V57.24c0 .58-.348.928-.928.928h-4.872c-.58 0-.928-.348-.928-.928V29.458c0-.58.348-.928.928-.928h4.872c.58 0 .928.348.928.928v2.262c0 .29.174.406.348.116 1.508-2.262 3.712-3.654 6.728-3.654z" fill="#3453BE"/>
</svg>
