<svg width="22" height="26" viewBox="0 0 22 26" fill="none" xmlns="http://www.w3.org/2000/svg">
    <path d="M7.511 1.22a.72.72 0 0 1 .404.926L6.637 5.46l.354-.157c5.1-2.262 11.078.078 13.323 5.218 2.245 5.139-.078 11.16-5.18 13.423-5.166 2.291-11.197-.026-13.442-5.165a10.18 10.18 0 0 1-.17-7.792.707.707 0 0 1 1.215-.188c.159.199.2.468.108.706a8.754 8.754 0 0 0 .146 6.698c1.93 4.417 7.121 6.405 11.572 4.431a8.726 8.726 0 0 0 4.598-4.84 8.812 8.812 0 0 0-.146-6.697 8.716 8.716 0 0 0-4.804-4.632 8.63 8.63 0 0 0-6.649.147l-.353.157 3.289 1.288a.718.718 0 0 1 .187 1.224.706.706 0 0 1-.702.109L5.098 7.477a.703.703 0 0 1-.125-.065c-.017-.01-.032-.024-.048-.037a.42.42 0 0 1-.11-.105c-.014-.017-.03-.032-.042-.05a.702.702 0 0 1-.111-.256c-.005-.021-.006-.043-.009-.064a.422.422 0 0 1-.002-.153c.001-.02 0-.04.004-.06a.73.73 0 0 1 .038-.137l1.9-4.922a.705.705 0 0 1 .919-.407z" fill="#fff" stroke="#fff" stroke-width=".7"/>
</svg>
