<svg width="23" height="41" viewBox="0 0 23 41" fill="none" xmlns="http://www.w3.org/2000/svg">
    <path d="M7.652 40.262c5.564 1.079 10.38-3.156 10.38-8.553 0-2.823-1.412-5.398-3.57-6.975V5.718A5.121 5.121 0 0 0 9.312.569C6.49.57 4.165 2.894 4.165 5.718v19.016C1.59 26.644.095 29.882.843 33.536c.665 3.321 3.405 6.061 6.81 6.726zm-2.408-13.95.747-.582V5.8c0-1.826 1.495-3.238 3.239-3.238 1.827 0 3.321 1.495 3.321 3.239V25.73l.748.581c1.743 1.246 2.74 3.322 2.74 5.48 0 1.828-.747 3.571-1.993 4.817-1.329 1.246-2.99 1.993-4.816 1.993-3.405 0-6.062-2.408-6.643-5.398-.415-2.74.581-5.397 2.657-6.892z" fill="#F67849"/>
    <path d="M9.313 36.608c1.329 0 2.574-.498 3.488-1.412.913-.913 1.411-2.159 1.411-3.487 0-3.322-2.823-4.401-3.57-5.066V12.61h-2.74v14.034c-.582.664-4.236 1.992-3.405 6.061.415 2.16 2.325 3.903 4.816 3.903zM21.354 6.216H16.62v1.91h4.734a.922.922 0 0 0 .913-.913c.083-.582-.332-.997-.913-.997zM20.44 12.195a.922.922 0 0 0-.913-.914h-2.823v1.91h2.823c.498-.083.913-.498.913-.996zM22.35 17.177a.922.922 0 0 0-.913-.913h-4.734v1.91h4.734c.498 0 .913-.499.913-.997z" fill="#F67849"/>
</svg>
