<svg width="39" height="35" viewBox="0 0 39 35" fill="none" xmlns="http://www.w3.org/2000/svg">
    <path d="M16.133.247a6.727 6.727 0 0 0-3.708 1.079c-2.397 1.56-3.49 4.478-2.708 7.194.166.564.765.892 1.342.732.58-.159.917-.748.755-1.317a4.318 4.318 0 0 1 1.817-4.827 4.518 4.518 0 0 1 5.244.227c1.515 1.188 2.072 3.186 1.383 4.963-.69 1.778-2.464 2.908-4.4 2.807H2.068a1.1 1.1 0 0 0-.768.316 1.058 1.058 0 0 0-.317.757 1.08 1.08 0 0 0 1.085 1.067h13.677c2.873.149 5.523-1.545 6.546-4.183 1.023-2.637.188-5.637-2.06-7.398A6.68 6.68 0 0 0 16.134.247zM31.418 5.61a6.716 6.716 0 0 0-3.7 1.088c-2.396 1.56-3.492 4.47-2.71 7.185.078.274.263.505.516.644.252.14.55.174.828.097.279-.078.514-.261.654-.51a1.05 1.05 0 0 0 .093-.815c-.527-1.83.21-3.767 1.825-4.82a4.515 4.515 0 0 1 5.242.222 4.315 4.315 0 0 1 1.383 4.97c-.69 1.777-2.461 2.907-4.397 2.806-.015 0-.029.002-.043.003l-.013-.003H2.068a1.08 1.08 0 0 0-1.085 1.065c-.001.283.112.556.316.757a1.1 1.1 0 0 0 .769.316h29.028l.077-.002c2.82.09 5.405-1.59 6.412-4.187 1.023-2.638.188-5.629-2.06-7.39a6.716 6.716 0 0 0-4.107-1.426zm-6.046 16.135a6.69 6.69 0 0 0-.402.01H2.068a1.1 1.1 0 0 0-.769.316 1.058 1.058 0 0 0-.316.757 1.08 1.08 0 0 0 1.085 1.064h22.957c.005 0 .01 0 .015-.002l.04.002c1.936-.1 3.71 1.03 4.4 2.808.689 1.777.131 3.775-1.383 4.963a4.515 4.515 0 0 1-5.242.227c-1.615-1.052-2.346-2.997-1.819-4.827a1.066 1.066 0 0 0-.755-1.317 1.092 1.092 0 0 0-1.343.74c-.781 2.716.32 5.628 2.717 7.189a6.709 6.709 0 0 0 3.957 1.072 6.69 6.69 0 0 0 3.844-1.413c2.247-1.761 3.08-4.753 2.057-7.39-.975-2.514-3.427-4.178-6.141-4.199z" fill="#3453BE"/>
</svg>
