<svg width="28" height="27" viewBox="0 0 28 27" fill="none" xmlns="http://www.w3.org/2000/svg">
    <path fill-rule="evenodd" clip-rule="evenodd" d="M14.039 14.509a3.307 3.307 0 0 0-3.305 3.305 3.307 3.307 0 0 0 3.305 3.304 3.307 3.307 0 0 0 3.305-3.304 3.307 3.307 0 0 0-3.305-3.305zm0 1.326a1.98 1.98 0 1 1-.001 3.96 1.98 1.98 0 0 1 .001-3.96zM13.376 12.51v.757a.663.663 0 0 0 1.326 0v-.757a.663.663 0 0 0-1.326 0zM17.32 13.595l-.535.535a.664.664 0 0 0 .938.937l.535-.536a.662.662 0 1 0-.938-.937zM19.343 17.15h-.758a.663.663 0 0 0 0 1.327h.758a.663.663 0 0 0 0-1.326zM18.259 21.095l-.536-.535a.663.663 0 0 0-.938.937l.536.536a.663.663 0 1 0 .938-.938zM14.702 23.118v-.759a.664.664 0 0 0-1.326 0v.759a.663.663 0 0 0 1.326 0zM10.758 22.033l.535-.536a.664.664 0 0 0-.938-.937l-.535.535a.663.663 0 1 0 .938.938zM8.735 18.477h.757a.663.663 0 0 0 0-1.326h-.757a.663.663 0 0 0 0 1.326zM9.82 14.531l.535.536a.663.663 0 0 0 .938-.937l-.535-.536a.663.663 0 0 0-.938.937zM1.663 10.784h24.752a.663.663 0 0 0 0-1.326H1.663a.663.663 0 0 0 0 1.326zM21.09 3.048a2.374 2.374 0 0 0-4.75 0v1.984a2.373 2.373 0 0 0 2.375 2.375 2.372 2.372 0 0 0 2.375-2.375V3.048zm-1.326 0v1.984a1.047 1.047 0 0 1-1.79.74 1.044 1.044 0 0 1-.307-.74V3.048a1.045 1.045 0 0 1 1.048-1.047 1.051 1.051 0 0 1 1.049 1.047zM11.737 3.048a2.374 2.374 0 0 0-4.749 0v1.984a2.373 2.373 0 0 0 4.053 1.679c.446-.445.696-1.05.696-1.679V3.048zm-1.326 0v1.984c0 .279-.11.545-.307.74a1.044 1.044 0 0 1-1.483 0 1.047 1.047 0 0 1-.307-.74V3.048a1.048 1.048 0 0 1 2.097 0z" fill="#3453BE"/>
    <path fill-rule="evenodd" clip-rule="evenodd" d="M11.074 3.377a.663.663 0 0 0-.663.663v.992c0 .279-.11.545-.307.74a1.044 1.044 0 0 1-.741.309h-.001a1.046 1.046 0 0 1-1.048-1.049V4.04a.663.663 0 0 0-.663-.663H4.365A3.366 3.366 0 0 0 1 6.744V22.96a3.366 3.366 0 0 0 3.365 3.365h19.347a3.366 3.366 0 0 0 3.366-3.365V6.744a3.366 3.366 0 0 0-3.366-3.367h-3.286a.663.663 0 0 0-.663.663v.992a1.047 1.047 0 0 1-1.047 1.049c-.28 0-.545-.111-.741-.308a1.044 1.044 0 0 1-.308-.74V4.04a.663.663 0 0 0-.663-.663h-5.93zm.663 1.326h4.604v.33a2.373 2.373 0 0 0 2.374 2.374 2.372 2.372 0 0 0 2.375-2.375v-.329h2.622a2.04 2.04 0 0 1 2.04 2.04V22.96a2.04 2.04 0 0 1-2.04 2.039H4.365a2.04 2.04 0 0 1-2.039-2.04V6.745a2.04 2.04 0 0 1 2.04-2.04h2.622v.328a2.373 2.373 0 0 0 4.053 1.679c.446-.445.696-1.05.696-1.679v-.329z" fill="#3453BE"/>
    <path d="M16.34 5.032V3.048a2.374 2.374 0 0 1 4.75 0v1.984m-4.75 0a2.373 2.373 0 0 0 2.375 2.375 2.372 2.372 0 0 0 2.375-2.375m-4.75 0v-.329h-4.603v.33m9.353 0v-.33h2.622a2.04 2.04 0 0 1 2.04 2.04V22.96a2.04 2.04 0 0 1-2.04 2.039H4.365a2.04 2.04 0 0 1-2.039-2.04V6.745a2.04 2.04 0 0 1 2.04-2.04h2.622v.328m12.776 0V3.048a1.049 1.049 0 0 0-2.097 0v1.984m2.097 0a1.047 1.047 0 0 1-1.048 1.049m1.048-1.049V4.04c0-.366.296-.663.662-.663h3.286a3.366 3.366 0 0 1 3.366 3.367V22.96a3.366 3.366 0 0 1-3.366 3.365H4.365A3.366 3.366 0 0 1 1 22.96V6.744a3.366 3.366 0 0 1 3.365-3.367h3.286c.366 0 .663.297.663.663v.992m10.402 1.049c-.278 0-.545-.111-.741-.308m.741.308c-.28 0-.545-.111-.741-.308m0 0a1.044 1.044 0 0 1-.308-.74m0 0V4.04a.663.663 0 0 0-.663-.663h-5.93a.663.663 0 0 0-.663.663v.992m-3.423 0V3.048a2.374 2.374 0 0 1 4.75 0v1.984m-4.75 0a2.373 2.373 0 0 0 4.053 1.679c.446-.445.696-1.05.696-1.679m-1.326 0V3.048a1.046 1.046 0 0 0-1.049-1.047 1.05 1.05 0 0 0-1.048 1.047v1.984m2.097 0c0 .279-.11.545-.307.74a1.044 1.044 0 0 1-.741.309m0 0c-.278 0-.545-.111-.742-.308m.742.308h-.001c-.278 0-.544-.111-.74-.308m0 0a1.047 1.047 0 0 1-.308-.74m5.725 9.476a3.307 3.307 0 0 0-3.305 3.305 3.307 3.307 0 0 0 3.305 3.304 3.307 3.307 0 0 0 3.305-3.304 3.307 3.307 0 0 0-3.305-3.305zm0 1.326a1.98 1.98 0 1 1-.001 3.96 1.98 1.98 0 0 1 .001-3.96zm-.663-3.325v.757a.663.663 0 0 0 1.326 0v-.757a.663.663 0 0 0-1.326 0zm3.944 1.085-.535.535a.664.664 0 0 0 .938.937l.535-.536a.662.662 0 1 0-.938-.937zm2.023 3.556h-.758a.663.663 0 0 0 0 1.326h.758a.663.663 0 0 0 0-1.326zm-1.084 3.944-.536-.535a.663.663 0 0 0-.938.937l.536.536a.663.663 0 1 0 .938-.938zm-3.557 2.023v-.759a.664.664 0 0 0-1.326 0v.759a.663.663 0 0 0 1.326 0zm-3.944-1.085.535-.536a.664.664 0 0 0-.938-.937l-.535.535a.663.663 0 1 0 .938.938zm-2.023-3.556h.757a.663.663 0 0 0 0-1.326h-.757a.663.663 0 0 0 0 1.326zM9.82 14.53l.535.536a.663.663 0 0 0 .938-.937l-.535-.536a.663.663 0 0 0-.938.937zm-8.157-3.747h24.752a.663.663 0 0 0 0-1.326H1.663a.663.663 0 0 0 0 1.326z" stroke="#3453BE" stroke-width=".4"/>
</svg>
