<svg width="28" height="29" viewBox="0 0 28 29" fill="none" xmlns="http://www.w3.org/2000/svg">
    <rect x="1.143" y="1.583" width="26" height="26" rx="13" fill="#E4EAFF"/>
    <path d="M20.282 18.815H9.3a3.162 3.162 0 0 1-3.157-3.16 3.16 3.16 0 0 1 3.755-3.099 2.39 2.39 0 0 1 3.481-1.354 3.93 3.93 0 0 1 3.714-2.618 3.946 3.946 0 0 1 3.941 4.006 3.14 3.14 0 0 1 2.405 3.066 3.162 3.162 0 0 1-3.157 3.159zM9.3 13.057a2.602 2.602 0 0 0-2.6 2.6 2.603 2.603 0 0 0 2.6 2.6h10.982a2.603 2.603 0 0 0 2.599-2.6c0-1.283-.917-2.361-2.181-2.565a.28.28 0 0 1-.234-.295 3.388 3.388 0 0 0-3.373-3.655 3.375 3.375 0 0 0-3.287 2.577.279.279 0 0 1-.451.147 1.819 1.819 0 0 0-1.175-.43c-.887 0-1.645.633-1.803 1.506a.279.279 0 0 1-.352.218 2.608 2.608 0 0 0-.725-.103z" fill="#5D5FEF" stroke="#808AB2"/>
    <rect x="1.143" y="1.583" width="26" height="26" rx="13" stroke="#808AB2" stroke-width="1.5"/>
</svg>
