<svg width="28" height="29" viewBox="0 0 28 29" fill="none" xmlns="http://www.w3.org/2000/svg">
    <rect x="1.143" y="1.583" width="26" height="26" rx="13" fill="#E4EAFF"/>
    <path d="M14.065 23.544a5.926 5.926 0 0 1-5.922-5.921c0-3.092 5.192-11.814 5.426-12.194l.496-.846.495.846c.234.38 5.426 9.101 5.426 12.194a5.926 5.926 0 0 1-5.921 5.921zm0-16.656C12.373 9.805 9.31 15.58 9.31 17.623a4.756 4.756 0 0 0 9.51 0c0-2.042-3.063-7.818-4.755-10.735z" fill="#808AB2"/>
    <rect x="1.143" y="1.583" width="26" height="26" rx="13" stroke="#808AB2" stroke-width="1.5"/>
</svg>
