<svg width="19" height="18" viewBox="0 0 19 18" fill="none" xmlns="http://www.w3.org/2000/svg">
    <path d="M17.353 12.98v2.408a1.604 1.604 0 0 1-1.094 1.527 1.613 1.613 0 0 1-.66.079 15.942 15.942 0 0 1-6.942-2.465A15.672 15.672 0 0 1 3.83 9.71a15.869 15.869 0 0 1-2.47-6.96 1.603 1.603 0 0 1 .952-1.614c.205-.09.426-.137.649-.137h2.413a1.61 1.61 0 0 1 1.61 1.381c.101.77.29 1.528.562 2.256a1.603 1.603 0 0 1-.362 1.694l-1.021 1.02a12.86 12.86 0 0 0 4.827 4.817l1.021-1.02a1.61 1.61 0 0 1 1.698-.36c.73.271 1.488.46 2.26.561a1.61 1.61 0 0 1 1.384 1.63z" stroke="#3453BE" stroke-width="1.3" stroke-linecap="round" stroke-linejoin="round"/>
</svg>
