<svg width="28" height="29" viewBox="0 0 28 29" fill="none" xmlns="http://www.w3.org/2000/svg">
    <rect x="1.214" y="1.583" width="26" height="26" rx="13" fill="#E4EAFF"/>
    <path d="M13.376 23.699c2.622.51 4.892-1.49 4.892-4.038a4.103 4.103 0 0 0-1.683-3.293V7.391a2.416 2.416 0 0 0-2.427-2.43 2.44 2.44 0 0 0-2.426 2.43v8.977c-1.214.902-1.918 2.43-1.566 4.155.313 1.569 1.605 2.862 3.21 3.176zm-1.136-6.586.353-.274V7.43a1.53 1.53 0 0 1 1.526-1.529c.861 0 1.566.706 1.566 1.53v9.408l.352.274c.822.588 1.291 1.568 1.291 2.587 0 .863-.352 1.686-.939 2.274-.626.588-1.409.94-2.27.94a3.17 3.17 0 0 1-3.131-2.547c-.196-1.294.274-2.548 1.252-3.254z" fill="#808AB2"/>
    <path d="M14.158 21.974c.627 0 1.213-.235 1.644-.666.43-.432.665-1.02.665-1.647 0-1.568-1.33-2.078-1.683-2.391v-6.625h-1.291v6.625c-.274.314-1.996.94-1.605 2.862a2.287 2.287 0 0 0 2.27 1.842zM19.834 7.626h-2.232v.902h2.232c.234 0 .43-.196.43-.431.039-.275-.157-.47-.43-.47zM19.403 10.449a.435.435 0 0 0-.43-.431h-1.331v.901h1.33c.235-.039.43-.235.43-.47zM20.303 12.8a.435.435 0 0 0-.43-.43h-2.231v.901h2.23c.236 0 .431-.235.431-.47z" fill="#808AB2"/>
    <rect x="1.214" y="1.583" width="26" height="26" rx="13" stroke="#808AB2" stroke-width="1.5"/>
</svg>
