<svg width="28" height="29" viewBox="0 0 28 29" fill="none" xmlns="http://www.w3.org/2000/svg">
    <rect x="1.143" y="1.583" width="26" height="26" rx="13" fill="#E4EAFF"/>
    <path d="M12.844 6.584a3.42 3.42 0 0 0-1.885.548 3.283 3.283 0 0 0-1.376 3.657c.084.287.389.454.682.373a.542.542 0 0 0 .384-.67c-.268-.93.102-1.92.924-2.454a2.297 2.297 0 0 1 2.665.116c.77.603 1.054 1.62.703 2.523a2.262 2.262 0 0 1-2.236 1.427h-7.01a.56.56 0 0 0-.391.16.537.537 0 0 0-.16.385c0 .299.246.54.55.542h6.953c1.46.076 2.808-.785 3.328-2.126a3.275 3.275 0 0 0-1.047-3.761 3.396 3.396 0 0 0-2.084-.72zm7.77 2.726a3.414 3.414 0 0 0-1.88.553 3.278 3.278 0 0 0-1.378 3.653c.04.139.134.257.262.327s.28.088.421.05a.553.553 0 0 0 .333-.26.534.534 0 0 0 .047-.414 2.191 2.191 0 0 1 .928-2.45 2.295 2.295 0 0 1 2.664.112 2.194 2.194 0 0 1 .703 2.527 2.26 2.26 0 0 1-2.235 1.426l-.022.002-.006-.002H5.695a.549.549 0 0 0-.552.542c0 .143.057.282.16.384.104.102.245.16.392.16H20.49c1.433.046 2.747-.809 3.26-2.129a3.269 3.269 0 0 0-1.048-3.756 3.414 3.414 0 0 0-2.088-.725zm-3.073 8.202c-.068 0-.136.002-.205.005H5.695a.56.56 0 0 0-.391.161.538.538 0 0 0-.16.385c0 .298.247.54.55.54H17.393a2.262 2.262 0 0 1 2.237 1.428c.35.903.067 1.919-.703 2.523-.77.603-1.843.65-2.665.115a2.196 2.196 0 0 1-.924-2.454.542.542 0 0 0-.384-.67.555.555 0 0 0-.682.377 3.28 3.28 0 0 0 1.38 3.654 3.41 3.41 0 0 0 2.012.546 3.4 3.4 0 0 0 1.954-.719 3.268 3.268 0 0 0 1.046-3.756 3.375 3.375 0 0 0-3.122-2.135z" fill="#808AB2"/>
    <rect x="1.143" y="1.583" width="26" height="26" rx="13" stroke="#808AB2" stroke-width="1.5"/>
</svg>
